<?xml version="1.0" encoding="UTF-8" standalone="no"?>
<!-- Generator: Adobe Illustrator 22.1.0, SVG Export Plug-In . SVG Version: 6.00 Build 0)  -->

<svg
   xmlns:dc="http://purl.org/dc/elements/1.1/"
   xmlns:cc="http://creativecommons.org/ns#"
   xmlns:rdf="http://www.w3.org/1999/02/22-rdf-syntax-ns#"
   xmlns:svg="http://www.w3.org/2000/svg"
   xmlns="http://www.w3.org/2000/svg"
   xmlns:sodipodi="http://sodipodi.sourceforge.net/DTD/sodipodi-0.dtd"
   xmlns:inkscape="http://www.inkscape.org/namespaces/inkscape"
   version="1.1"
   id="Layer_1"
   x="0px"
   y="0px"
   viewBox="0 0 290.2 976.1"
   style="enable-background:new 0 0 290.2 976.1;"
   xml:space="preserve"
   sodipodi:docname="La Manzana - Key Plan Completo.svg"
   inkscape:version="0.92.3 (2405546, 2018-03-11)"><metadata
   id="metadata353"><rdf:RDF><cc:Work
       rdf:about=""><dc:format>image/svg+xml</dc:format><dc:type
         rdf:resource="http://purl.org/dc/dcmitype/StillImage" /></cc:Work></rdf:RDF></metadata><defs
   id="defs351" /><sodipodi:namedview
   pagecolor="#ffffff"
   bordercolor="#666666"
   borderopacity="1"
   objecttolerance="10"
   gridtolerance="10"
   guidetolerance="10"
   inkscape:pageopacity="0"
   inkscape:pageshadow="2"
   inkscape:window-width="4800"
   inkscape:window-height="2442"
   id="namedview349"
   showgrid="false"
   inkscape:zoom="3.1265987"
   inkscape:cx="145.10001"
   inkscape:cy="219.38743"
   inkscape:window-x="9584"
   inkscape:window-y="-16"
   inkscape:window-maximized="1"
   inkscape:current-layer="Layer_1" />
<style
   type="text/css"
   id="style2">
	.st0{fill:#F7EC13;}
	.st1{fill:none;stroke:#010101;stroke-width:2;stroke-linecap:round;stroke-miterlimit:10;}
	.st2{fill:none;stroke:#010101;stroke-linecap:round;stroke-miterlimit:10;}
	.st3{fill:#E6E7E7;stroke:#010101;stroke-width:1.5;stroke-linecap:round;stroke-miterlimit:10;}
</style>
<polygon
   class="st0"
   points="87.1,843.6 84.1,926.8 207.8,923.7 213.9,915.3 203.4,843.6 183.3,846.6 182.3,839.7 "
   id="P0"
   inkscape:label="P0" />
<polygon
   class="st0"
   points="5.4,7.5 41.9,6.7 72.9,8.6 72.9,10.9 88.7,11 90.2,50.3 61.1,49.3 61.8,28.9 37.5,28.1 37.7,21.9   4.8,20.4 "
   id="A13"
   inkscape:label="A13" />
<polygon
   class="st0"
   points="4.7,21.8 10.4,22.1 10.5,20.6 37.7,21.9 37.5,28.1 52.9,28.6 52.1,48.8 9.3,47.3 9.3,46.9 3.6,46.8 "
   id="A15"
   inkscape:label="A15" />
<polygon
   class="st0"
   points="3.5,48.5 9.2,48.5 9.3,47.3 43.7,48.5 42.6,77.4 33.9,77.1 33.6,84.5 7.4,83.6 7.4,81.3 2.1,81.3 "
   id="A16"
   inkscape:label="A16" />
<polygon
   class="st0"
   points="2,82.9 7.4,82.9 7.4,83.6 33.6,84.5 33.6,88.5 42.4,88.8 41.2,117.7 8,116.6 8,115.9 2.3,115.9   1.9,85.9 "
   id="A19"
   inkscape:label="A19" />
<polygon
   class="st0"
   points="2.3,117.5 8,117.5 8,116.6 41.2,117.7 40.1,148.2 8.3,147.1 8.4,148.2 2.7,148.3 "
   id="A21"
   inkscape:label="A21" />
<polygon
   class="st0"
   points="2.7,150 8.5,150 8.4,148.2 8.3,147.1 40.1,148.2 39.5,167.6 23.5,168.1 22.8,177.5 3.2,176.4   3.2,167.8 2.8,157.8 "
   id="A23"
   inkscape:label="A23" />
<polygon
   class="st0"
   points="88.7,11 88.5,6.5 104.8,6.3 105.2,15.6 107.9,15.4 109.3,49.3 90.2,50.2 "
   id="A12"
   inkscape:label="A12" />
<polygon
   class="st0"
   points="110.3,6.3 110.6,15.3 107.9,15.4 109.3,49.3 129,48.5 127.3,6.2 "
   id="A11"
   inkscape:label="A11" />
<polygon
   class="st0"
   points="2.7,189.9 29.9,191.7 37.1,191.3 36.8,176.6 67.3,175.9 68.2,213.1 68.3,214.4 27.7,215.3 10.7,215.7   1.2,215.9 1,189.9 "
   id="A24"
   inkscape:label="A24" />
<polygon
   class="st0"
   points="61.7,167.1 62,176 67.3,175.9 68.2,213.1 68.3,214.4 88.5,213.9 88.5,175.4 86.4,175.4 86.8,166.7 "
   id="A25"
   inkscape:label="A25" />
<polygon
   class="st0"
   points="61.7,167.1 48.3,167.5 49.3,137.6 65.6,138.2 65.4,146.9 81.8,147.6 81.8,145.9 87.4,146.1 86.8,166.7   "
   id="A22"
   inkscape:label="A22" />
<polygon
   class="st0"
   points="49.9,118.1 82.7,119.1 82.9,116.1 88.4,116.3 87.4,146.1 81.8,145.9 81.8,147.6 65.4,146.9 65.6,138.2   49.3,137.6 "
   id="A20"
   inkscape:label="A20" />
<polygon
   class="st0"
   points="50.8,93.8 83.6,94.9 83.4,100.3 89,100.5 88.4,116.3 82.9,116.1 82.7,119.1 49.9,118.1 "
   id="A18"
   inkscape:label="A18" />
<polygon
   class="st0"
   points="51.6,72.2 60.2,72.6 60.2,76.6 84.2,77.5 84.1,80.4 89.8,80.6 89,100.5 83.4,100.3 83.6,94.9   50.8,93.8 "
   id="A17"
   inkscape:label="A17" />
<polygon
   class="st0"
   points="52,57.6 90.3,59 89.8,80.6 84.1,80.4 84,77.5 60.2,76.6 60.2,72.6 51.6,72.2 "
   id="A14"
   inkscape:label="A14" />
<polygon
   class="st0"
   points="144.2,6.1 144.5,13.9 147.3,13.9 148.7,47.7 129,48.5 127.3,6.2 "
   id="A10"
   inkscape:label="A10" />
<polygon
   class="st0"
   points="149.7,5.9 150,13.9 147.3,13.9 148.7,47.7 168.3,46.9 166.7,4.7 151.3,5.9 "
   id="A9"
   inkscape:label="A9" />
<polygon
   class="st0"
   points="183.5,3.3 183.9,12.4 186.6,12.3 188,46.1 168.3,46.9 166.7,4.7 "
   id="A8"
   inkscape:label="A8" />
<polygon
   class="st0"
   points="188.9,2.8 189.3,12.2 186.6,12.3 188,46.1 208.9,45.3 207.2,33.9 206.3,11.4 207.9,11.4 207.6,2.4 "
   id="A7"
   inkscape:label="A7" />
<polygon
   class="st0"
   points="258.2,1 262.5,29.7 225.5,35.4 225,32 215.8,33.4 216.3,36.8 207.8,38.2 207.2,33.9 206.3,11.4   207.9,11.4 207.6,2.4 "
   id="A6"
   inkscape:label="A6" />
<polygon
   class="st0"
   points="209.8,51.3 218.4,50 216.3,36.5 215.8,33.4 225,32 225.5,35.4 262.5,29.7 266.9,58.8 212,67.4 "
   id="A5"
   inkscape:label="A5" />
<polygon
   class="st0"
   points="271.4,88.3 266.9,58.8 212,67.4 216.3,96.6 "
   id="A4"
   inkscape:label="A4" />
<polygon
   class="st0"
   points="275.7,117.4 271.4,88.3 216.3,96.6 220.8,125.2 "
   id="A3"
   inkscape:label="A3" />
<polygon
   class="st0"
   points="279.9,147.8 275.7,117.4 248.2,121.3 251.5,141.8 238,143.7 237.2,138.6 223.4,140.8 224.6,149.2   225.7,156 "
   id="A2"
   inkscape:label="A2" />
<polygon
   class="st0"
   points="232.7,210.2 225.7,156 279.9,147.8 288.9,208.7 289,209.3 269.1,209.8 252.7,210.2 "
   id="A1"
   inkscape:label="A1" />
<polygon
   class="st0"
   points="1.1,428.4 5.4,428.4 7.2,428.3 23.9,428.1 23.9,417.7 33.6,417.7 39.1,417.7 67.4,417.7 72.7,417.7   74.5,417.7 74.6,416.3 75.9,378.8 78.5,307.5 78.8,298.5 77,298.5 60.8,298 60.8,298.3 49.3,297.9 38.4,297.6 37.1,297.6   37.1,298.9 37,302.2 36.9,304 24.7,304.3 19.4,304.5 3.2,304.9 2.4,304.9 2.1,310.5 1.7,320.6 1.4,327 1.1,333 1,337.1 1.1,342.8   1.2,352.9 1.3,356 1.3,359.1 1.4,364.2 1.4,369.4 1.5,372.5 1.5,375.6 1.6,380.7 1.6,385.8 1.7,388.9 1.7,391.9 1.8,397.1   1.9,402.2 1.9,405.4 1.9,408.6 1.9,409.3 2.1,414.4 2.3,419.4 1.1,419.4 "
   id="O16"
   inkscape:label="O16" />
<polyline
   class="st0"
   points="89.1,258.9 91.9,258.9 91.9,257.5 127.1,257.2 127.3,262.7 125.1,262.8 125.3,267.2 129.7,267   129.8,271.3 127.7,271.4 128.8,300 127.7,300.1 114.1,300.6 113.3,300.7 105.1,301 104.3,301 90.6,301.6 87.7,301.7 88,291.7   88.9,262.9 89.1,258.9 "
   id="O14"
   inkscape:label="O14" />
<polygon
   class="st0"
   points="168.1,298.4 167,298.5 153.4,299 152.6,299.1 144.4,299.4 143.5,299.4 129.9,300 128.8,300   127.7,271.4 129.8,271.3 129.7,267 125.3,267.2 125.1,262.8 127.3,262.7 127.1,257.2 144.1,257 151.2,256.9 166.4,255.7 "
   id="O13"
   inkscape:label="O13" />
<polygon
   class="st0"
   points="202.5,253.4 207.6,288.5 207.9,290.3 208.8,296.8 200,297.1 192.7,297.4 191.8,297.5 183.7,297.8   182.8,297.8 169.2,298.4 168.1,298.4 166.4,255.7 170.3,255.4 189.4,253.8 195.7,253.6 202,253.5 "
   id="O12"
   inkscape:label="O12" />
<polygon
   class="st0"
   points="202.5,253.4 203.8,253.3 256.7,252 258.1,251.9 270.4,332.8 274.4,359 274.8,361.7 274,361.8   263.8,362.7 262,362.9 258.8,363.4 253.7,364.2 228.6,368 226.8,368.3 218.9,369.4 218.1,363.8 215.9,348.8 215.6,347 214.9,342   214.8,341.3 214.1,335.9 211.9,321.5 211.7,319.5 211.4,317.8 211.1,315.6 210,308 209.5,305 208.4,297.4 208.3,296.8 208.8,296.8   "
   id="O11"
   inkscape:label="O11" />
<polyline
   class="st0"
   points="88.3,428 88.3,428.8 88.3,433.4 88.4,438.7 88.5,453.2 88.6,458.7 88.6,463.7 88.6,464.6 88.7,465.6   85,465.7 79.7,465.8 76.6,465.9 71.3,466 68.9,466.1 67.3,466.1 65,466.2 59.7,466.3 57.6,466.3 52.2,466.5 49.9,466.5 48.1,466.5   46.5,466.6 41.1,466.7 38.2,466.8 32.8,466.9 31,466.9 27.7,467 24.4,467.1 6.9,467.5 3.1,467.6 1.1,467.6 1.1,442.2 1.1,441.6   2.2,441.6 3.3,441.6 5.3,441.6 7.1,441.7 11.6,441.7 15.7,441.8 21.1,441.9 23.6,441.9 30.6,442 31.6,442 31.5,442.4 31.5,443   36.7,443 36.4,429.5 40.2,429.4 47.5,429.2 49.2,429.2 57.8,429 66.5,428.8 68.2,428.7 73.3,428.6 73.3,428.3 77.1,428.2   82.5,428.1 84.6,428.1 88.3,428 84.6,428.1 "
   id="O17"
   inkscape:label="O17" />
<polygon
   class="st0"
   points="88.3,427.3 88.2,425.9 88.8,425.9 92,425.8 102.4,425.5 107.5,425.4 114.3,425.3 124.5,425 127.5,425   128.5,463 128.5,464 122.7,464.2 122.4,464.2 114.5,464.3 99.5,464.7 91.6,464.9 89.3,464.9 88.7,464.9 88.6,463 88.4,438   88.3,432.7 88.3,428.1 "
   id="O18"
   inkscape:label="O18" />
<polygon
   class="st0"
   points="170.8,463 128.5,464 127.5,425 133.7,424.8 136.1,424.8 150.8,424.5 153.8,424.4 159.1,424.3   169.3,424.1 170.4,424.1 "
   id="O19"
   inkscape:label="O19" />
<polygon
   class="st0"
   points="195.4,423.5 195.4,424.3 195.4,427.9 195.5,431.5 195.5,436 195.7,451.6 195.7,453 200.1,452.9   200.2,457.8 197.3,457.9 197.4,462.5 193.7,462.5 185.8,462.7 180.6,462.8 172.7,463 170.8,463 170.4,424.1 171.5,424 186.2,423.7   189.3,423.7 194.4,423.6 "
   id="O20"
   inkscape:label="O20" />
<polyline
   class="st0"
   points="289,460.4 285.7,460.5 270.3,460.8 267.5,460.9 252.2,461.2 249.5,461.3 234.4,461.6 231.7,461.7   214.5,462.1 214,462.1 214,460.2 213.6,444.2 213.5,442.7 213.5,440.5 213.1,423.4 214.6,423.3 228.6,423.2 228,418.1 226.6,408.2   226.2,405.9 224.6,396.6 225.2,396.5 237.5,394.7 238,394.6 250.9,392.7 250.3,388.9 250.1,387.1 249.6,383.8 250.2,383.7   265.8,381.5 266.3,381.4 276.5,379.9 277.4,379.8 277.6,381.5 278.4,386.9 279.8,397.5 280.3,400.6 284,426.1 284.2,427.6   284.5,429.9 288.5,457.1 288.6,457.9 289,460.4 285.7,460.5 "
   id="O10"
   inkscape:label="O10" />
<polygon
   class="st0"
   points="2.4,304.9 2.4,304.4 2.9,294.3 3.2,286.6 3.7,276.5 4,269.8 4.5,259.8 4.5,258.9 21.5,258.9   38.5,258.8 40,258.9 40.8,258.9 40.8,259.1 49.6,259.4 56,259.7 59.1,259.8 60,259.8 60,260.8 60.9,260.8 61.9,260.8 61.9,262   61.9,262.6 61,290.3 61,291.7 60.8,297.1 60.8,298 60.8,298.3 55.1,298.1 49.3,297.9 43.9,297.8 38.4,297.6 37.6,297.6 37.1,297.6   37.1,298.9 37,302.2 36.9,304 36.4,304 30.8,304.2 24.7,304.3 19.4,304.5 "
   id="O15"
   inkscape:label="O15" />
<polygon
   class="st0"
   points="219.6,620.6 228.1,619.3 228.3,620.7 244.6,618.3 245.1,618.2 246.6,618 247.3,617.9 261.6,615.8   263.9,615.4 273.4,613.8 274.5,613.6 274.5,613 271.6,594.2 271.3,592.4 267.2,564.9 267.1,564 223.2,570.9 224.7,580.2 213,582.1   214.1,590.3 215.7,601 216,602.9 216.4,605.6 216.9,608.8 218.6,620.8 "
   id="O2"
   inkscape:label="O2" />
<polygon
   class="st0"
   points="213,582.1 224.7,580.2 223.2,570.9 246,567.3 267.1,564 266.9,563 262.8,535.7 262.5,533.9   258.8,509.2 258.6,507.8 258.3,506.2 230.3,507 204.5,507.7 202.1,507.8 203.7,518.4 208.6,551.1 208.3,551.1 212.1,576.1 "
   id="O3"
   inkscape:label="O3" />
<polygon
   class="st0"
   points="277.6,634.7 278.5,641.2 279.3,646.3 280.1,651.8 280.3,653.3 280.5,654.8 284.1,680.4 284.3,681.9   284.6,684.2 288.5,711.4 289,714.6 285.7,714.7 270.4,715.1 267.7,715.1 252.4,715.5 249.7,715.5 234.4,715.9 233.1,715.9   231.8,715.9 214.9,716.3 213.9,716.4 211.6,716.4 201.9,716.6 197.8,716.7 195.7,716.8 187.1,717 183.5,717 182.7,717.1   181.9,717.1 181.3,717.1 173.1,717.3 165.5,717.5 162.2,717.5 154,717.7 146.4,717.9 142.9,718 134.9,718.2 127.1,718.3   126.2,718.3 123.8,718.4 115.6,718.6 108,718.8 106.3,718.8 99.2,719 91,719.1 87.3,719.2 80.3,719.4 72.1,719.6 68.9,719.7   67.1,719.7 54.8,720 49.8,720.1 48.1,720.1 42.2,720.3 34,720.4 32.6,720.5 27.5,720.6 24.5,720.7 7,721.1 5.3,721.1 1.7,721.2   1.6,721.2 1.6,721.2 1.6,720.1 1.5,716 1.3,700.7 1.3,696.1 1.3,695.2 2.4,695.2 3.4,695.2 7.3,695.4 17.4,696.2 17.4,695.8   28.6,696.6 30.7,696.6 30.4,683.9 30.4,681.9 33.3,681.8 47,681.5 47.8,681.4 54.2,681.3 63,681.1 67.1,681 67.9,681 74.1,680.8   79.9,680.7 87.6,680.5 93,680.4 101.2,680.2 106.6,680.1 112,680 120.2,679.8 125.7,679.6 131,679.5 139.2,679.3 145.7,679.2   150.1,679.1 158.3,678.9 164.7,678.8 169.7,678.6 176.4,678.5 181.7,678.4 183.8,678.3 191.9,678.1 194.7,678.1 197,678   202.5,677.9 203.5,677.9 208.9,677.8 210.7,677.7 212.4,677.7 217.1,677.6 222.5,677.4 227.4,677.3 225.6,665 225.3,662.4   224.9,662.5 224.6,660.2 223.1,651.1 251.7,646.8 251,642.1 250.9,641.3 250.4,638.7 "
   id="O1"
   inkscape:label="O1" />
<polygon
   class="st0"
   points="2.8,548.1 7.6,548.1 7.5,552.8 38.7,552.8 37.8,572.1 78.3,573.6 78.2,575.6 78,581 77.9,583.3   77.7,587.2 77.4,594.9 77.2,602 77,606.7 76.8,612.1 76.6,615.7 76.4,621 76.3,623.8 76.1,629.1 76,634 75.7,641.1 75.6,643.9   75.4,649.2 75.2,656 74.9,663.1 74.8,664.8 74.6,670.2 74.6,671.1 74.5,672.9 72.3,673 53.7,673.6 52.1,673.6 46.6,673.8   35.5,674.2 31.9,674.3 22.6,674.4 14.5,674.5 3.3,674.7 2.3,674.7 2.3,673.7 2.3,673.3 2,663.1 2,659.8 1.9,656.6 1.8,646.5   1.7,643.4 1.7,640.4 1.6,630.2 1.5,627 1.5,623.9 1.3,613.8 1.3,610.7 1.2,607.7 1.1,597.5 1,594.4 1,591.4 1.2,581 1.4,578   1.5,574.9 2.1,564.7 2.2,561.7 2.4,558.6 2.8,548.4 "
   id="O9"
   inkscape:label="O9" />
<polygon
   class="st0"
   points="7.5,552.8 7.6,548.1 2.8,548.1 3,540.9 3.3,530.6 3.7,524.6 4.2,514.3 4.2,513.1 20.6,512.7 39,512.3   38.9,514.2 38.7,517.6 38.3,526.8 39.9,526.9 39.8,532.7 39.6,535 39.4,540.4 39.2,544.8 39.1,550.1 38.9,552.8 33.2,552.8   20.3,552.8 "
   id="O7"
   inkscape:label="O7" />
<polygon
   class="st0"
   points="38.7,552.8 38.9,552.8 38.9,552.7 79,552.7 78.8,556.7 78.6,564.2 78.3,573.6 37.8,572.1 38.6,553.2   "
   id="O8"
   inkscape:label="O8" />
<polygon
   class="st0"
   points="127.4,511.5 129.1,554.3 128,554.4 115.2,554.9 113.5,554.9 105.3,555.3 103.7,555.3 89.5,555.9   88.8,539.9 79.5,540.3 77.7,540.4 68.5,540.8 68,540.8 68,539.1 68.3,516.3 68.3,512 79.4,511.9 87.1,511.9 93.7,511.8 108.6,511.7   "
   id="O6"
   inkscape:label="O6" />
<polygon
   class="st0"
   points="166.6,510 168.4,552.7 154.4,553.3 152.8,553.4 144.6,553.7 143,553.8 130.2,554.3 129.1,554.3   127.5,513.8 127.4,511.5 151.1,511.3 "
   id="O5"
   inkscape:label="O5" />
<polygon
   class="st0"
   points="166.6,510 187.9,508.2 191.7,508.1 202.1,507.8 202.3,509.3 203.7,518.4 207.6,544.7 208.6,551.1   208.3,551.1 206.5,551.2 193.7,551.7 192.1,551.8 183.9,552.1 182.3,552.2 169.4,552.7 168.4,552.7 "
   id="O4"
   inkscape:label="O4" />
<polygon
   class="st0"
   points="283.2,928.7 286.7,952.7 289,969.1 286.7,969.1 285.6,969.2 268.7,969.5 250.7,969.9 233.6,970.3   231.3,970.4 230.8,970.4 230.6,961.1 231.8,961.1 230.4,951.7 230.2,950.1 229.7,946.8 227.9,947 227.5,944.7 225,926.9   225.6,926.9 246.7,923.8 244.9,910.9 251.1,909.9 253.1,909.6 253.8,914 271.4,911.1 272,911 274.2,926.7 280.8,925.7 281.3,928.9   "
   id="C5"
   inkscape:label="C5" />
<polygon
   class="st0"
   points="1,927.9 14.8,927.9 28,927.9 50.5,927.4 71.3,926.7 72,909.5 72.3,901.1 72.6,891.7 72.7,888.2   73.1,877.4 73.5,866.3 71.3,865.5 61.9,865.1 62.2,856.7 32.5,855.6 32.4,857.1 15.7,857.2 15.7,859.6 1,859.8 "
   id="C3"
   inkscape:label="C3" />
<polyline
   class="st0"
   points="2.6,827.6 32.2,825.9 33.1,805 41.9,805.2 42.8,786.1 38.4,785.8 38.1,791.7 34.7,791.5 34.6,792.2   3.4,792.4 2.9,802.6 2.7,806.3 2.5,811.8 1.7,826.2 1.7,827.6 2.6,827.6 "
   id="C2"
   inkscape:label="C2" />
<polygon
   class="st0"
   points="4.8,764.5 34.6,763.7 47.1,763.6 45.6,786.3 42.8,786.1 38.4,785.8 38.1,791.7 34.7,791.5 34.6,792.2   3.4,792.4 "
   id="C1"
   inkscape:label="C1" />
<polygon
   class="st0"
   points="47.1,763.6 91.9,763.2 149.2,762.7 188,759.5 200.8,759.1 201.1,759.1 208.4,808.4 207.9,808.4   207.3,808.4 200.1,808.7 200.2,812.4 200.2,812.8 185.1,813.4 166.9,814.2 167.1,821.2 147.2,822 127.3,822.8 107.4,823.7   105.7,823.7 105.4,816.3 88.8,816.9 85.5,817 75.3,817.4 74.9,829.6 72.4,829.5 72.4,828.7 52.3,827.9 34,827.3 32.1,827.2   32.2,825.9 33.1,805 41.9,805.2 42.8,786.1 45.6,786.3 "
   id="T0"
   inkscape:label="T0" />
<polygon
   class="st0"
   points="217.6,874.9 274.3,866.6 271.2,846.1 266.7,816.4 262.3,786.9 257.8,757.6 201.1,759.1 208.4,808.4   207.9,808.4 210.4,825.3 214.7,855 "
   id="C6"
   inkscape:label="C6" />
<polygon
   class="st0"
   points="14.9,934.3 27.2,934.2 27.1,936 194.1,932.1 195.1,971.2 24,975.1 1,952.2 1,949.5 14.6,950.3 "
   id="C4"
   inkscape:label="C4" />
<g
   id="g178">
	<polygon
   class="st1"
   points="195.1,971.2 67,974.1 60.1,974.3 50,974.5 39.1,974.8 29.1,975 24,975.1 20.6,971.9 4.3,955.6    1,952.2 1,949.5 14.6,950.3 14.9,936.1 14.9,934.3 27.2,934.2 27.1,936 30.5,935.9 40.4,935.7 49.9,935.4 59.8,935.2 66.6,935    194.1,932.1  "
   id="polygon110" />
	<polygon
   class="st1"
   points="283.2,928.7 286.7,952.7 289,969.1 286.7,969.1 285.6,969.2 268.7,969.5 250.7,969.9 233.6,970.3    231.3,970.4 230.8,970.4 230.6,961.1 231.8,961.1 230.4,951.7 230.2,950.1 229.7,946.8 227.9,947 227.5,944.7 225,926.9    225.6,926.9 246.7,923.8 244.9,910.9 251.1,909.9 253.1,909.6 253.8,914 271.4,911.1 272,911 274.2,926.7 280.8,925.7 281.3,928.9     "
   id="polygon112" />
	<polygon
   class="st1"
   points="1,927.9 14.8,927.9 28,927.9 50.5,927.4 71.3,926.7 72,909.5 72.3,901.1 72.6,891.7 72.7,888.2    73.1,877.4 73.5,866.3 71.3,865.5 61.9,865.1 62.2,856.7 32.5,855.6 32.4,857.1 15.7,857.2 15.7,859.6 1,859.8  "
   id="polygon114" />
	<polygon
   class="st2"
   points="1,927.9 15.3,927.9 15.2,934.3 14.9,934.3 14.6,950.3 1,949.5  "
   id="polygon116" />
	<polygon
   class="st3"
   points="194.1,932.1 211.3,931.7 211.5,936.6 211.8,942.2 211.9,946.1 211.6,947.3 212.1,961.5 212.9,961.5    213.1,970.8 195.1,971.2  "
   id="polygon118" />
	<polygon
   class="st3"
   points="244.9,910.9 235.3,912.5 237.3,925.2 246.7,923.8  "
   id="polygon120" />
	<polygon
   class="st1"
   points="235.3,912.5 225.6,914.1 223.3,914.5 225,926.9 237.3,925.2  "
   id="polygon122" />
	<polygon
   class="st1"
   points="271.4,911.1 270.8,906.7 279.9,905.3 283.2,928.7 281.3,928.9 280.8,925.7 274.2,926.7 272,911  "
   id="polygon124" />
	<polygon
   class="st2"
   points="218.4,883.1 225.8,881.9 227.3,891.2 232.9,890.4 236.4,890 235.2,881.7 247.6,879.8 249.8,895    249.8,895.5 221.1,900.1 221,899.5  "
   id="polygon126" />
	<polygon
   class="st1"
   points="245,870.8 246.4,880 247.6,879.8 249.8,895.5 253.6,894.9 253.7,895.3 255.5,895 257.1,894.7    262.5,893.9 268.7,893 266.2,876.6 275.6,875.2 274.3,866.6  "
   id="polygon128" />
	<polygon
   class="st3"
   points="218.8,883 218,876.9 217.6,874.9 245,870.8 246.4,880 235.2,881.7 236.4,890 227.3,891.2 225.8,881.9     "
   id="polygon130" />
	<polygon
   class="st1"
   points="1.1,839.9 15.7,839 15.7,857.2 15.7,859.6 1,859.8 1,841  "
   id="polygon132" />
	<polygon
   class="st1"
   points="15.7,839 31.5,838.1 33.3,838.2 32.5,855.6 32.4,857.1 15.7,857.2  "
   id="polygon134" />
	<polygon
   class="st1"
   points="33.4,837.1 72,838.5 71.5,852.8 62.3,852.5 62.2,856.7 32.5,855.6  "
   id="polygon136" />
	<polygon
   class="st3"
   points="71.5,852.8 71,865.4 61.9,865.1 62.3,852.5  "
   id="polygon138" />
	<polyline
   class="st1"
   points="2.6,827.6 32.2,825.9 33.1,805 41.9,805.2 42.8,786.1 38.4,785.8 38.1,791.7 34.7,791.5 34.6,792.2    3.4,792.4 2.9,802.6 2.7,806.3 2.5,811.8 1.7,826.2 1.7,827.6 2.6,827.6  "
   id="polyline140" />
	<polygon
   class="st1"
   points="4.8,764.5 34.6,763.7 47.1,763.6 45.6,786.3 42.8,786.1 38.4,785.8 38.1,791.7 34.7,791.5 34.6,792.2    3.4,792.4  "
   id="polygon142" />
	<polygon
   class="st1"
   points="47.1,763.6 91.9,763.2 149.2,762.7 188,759.5 200.8,759.1 201.1,759.1 208.4,808.4 207.9,808.4    207.3,808.4 200.1,808.7 200.2,812.4 200.2,812.8 185.1,813.4 166.9,814.2 167.1,821.2 147.2,822 127.3,822.8 107.4,823.7    105.7,823.7 105.4,816.3 88.8,816.9 85.5,817 75.3,817.4 74.9,829.6 72.4,829.5 72.4,828.7 52.3,827.9 34,827.3 32.1,827.2    32.2,825.9 33.1,805 41.9,805.2 42.8,786.1 45.6,786.3  "
   id="polygon144" />
	<polygon
   class="st1"
   points="217.6,874.9 274.3,866.6 271.2,846.1 266.7,816.4 262.3,786.9 257.8,757.6 201.1,759.1 208.4,808.4    207.9,808.4 210.4,825.3 214.7,855  "
   id="polygon146" />
	<polygon
   class="st1"
   points="268.7,893 277.9,891.6 275.6,875.2 266.2,876.6  "
   id="polygon148" />
	<polyline
   class="st2"
   points="88,816.9 84.1,926.8 207.8,923.7 213.9,915.3 198.9,812.9  "
   id="polyline150" />
	<polygon
   class="st2"
   points="203.4,843.6 198.9,812.9 178.3,813.7 183.3,846.6  "
   id="polygon152" />
	<line
   class="st2"
   x1="182.3"
   y1="839.7"
   x2="87.1"
   y2="843.6"
   id="line154" />
	<line
   class="st2"
   x1="1"
   y1="927.9"
   x2="14.6"
   y2="950.3"
   id="line156" />
	<line
   class="st2"
   x1="1"
   y1="949.5"
   x2="15.3"
   y2="927.9"
   id="line158" />
	<line
   class="st2"
   x1="178.3"
   y1="813.7"
   x2="203.4"
   y2="843.6"
   id="line160" />
	<line
   class="st2"
   x1="198.9"
   y1="812.9"
   x2="183.3"
   y2="846.6"
   id="line162" />
	<line
   class="st2"
   x1="236"
   y1="890"
   x2="249.8"
   y2="895.5"
   id="line164" />
	<line
   class="st2"
   x1="218.4"
   y1="883.1"
   x2="226.5"
   y2="886.3"
   id="line166" />
	<line
   class="st2"
   x1="233.7"
   y1="890.5"
   x2="221.1"
   y2="900.1"
   id="line168" />
	<path
   class="st3"
   d="M233.7,890.5"
   id="path170" />
	<path
   class="st3"
   d="M236.2,888.6"
   id="path172" />
	<line
   class="st2"
   x1="247.6"
   y1="879.8"
   x2="236.2"
   y2="888.6"
   id="line174" />
	<polyline
   class="st1"
   points="166.2,932.8 194.1,932.1 195.1,971.2 166.2,971.9  "
   id="polyline176" />
</g>
<g
   id="g222">
	<polygon
   class="st1"
   points="219.6,620.6 228.1,619.3 228.3,620.7 244.6,618.3 245.1,618.2 246.6,618 247.3,617.9 261.6,615.8    263.9,615.4 273.4,613.8 274.5,613.6 274.5,613 271.6,594.2 271.3,592.4 267.2,564.9 267.1,564 223.2,570.9 224.7,580.2 213,582.1    214.1,590.3 215.7,601 216,602.9 216.4,605.6 216.9,608.8 218.6,620.8  "
   id="polygon180" />
	<polygon
   class="st1"
   points="213,582.1 224.7,580.2 223.2,570.9 246,567.3 267.1,564 266.9,563 262.8,535.7 262.5,533.9    258.8,509.2 258.6,507.8 258.3,506.2 230.3,507 204.5,507.7 202.1,507.8 203.7,518.4 208.6,551.1 208.3,551.1 212.1,576.1  "
   id="polygon182" />
	<polygon
   class="st1"
   points="277.6,634.7 278.5,641.2 279.3,646.3 280.1,651.8 280.3,653.3 280.5,654.8 284.1,680.4 284.3,681.9    284.6,684.2 288.5,711.4 289,714.6 285.7,714.7 270.4,715.1 267.7,715.1 252.4,715.5 249.7,715.5 234.4,715.9 233.1,715.9    231.8,715.9 214.9,716.3 213.9,716.4 211.6,716.4 201.9,716.6 197.8,716.7 195.7,716.8 187.1,717 183.5,717 182.7,717.1    181.9,717.1 181.3,717.1 173.1,717.3 165.5,717.5 162.2,717.5 154,717.7 146.4,717.9 142.9,718 134.9,718.2 127.1,718.3    126.2,718.3 123.8,718.4 115.6,718.6 108,718.8 106.3,718.8 99.2,719 91,719.1 87.3,719.2 80.3,719.4 72.1,719.6 68.9,719.7    67.1,719.7 54.8,720 49.8,720.1 48.1,720.1 42.2,720.3 34,720.4 32.6,720.5 27.5,720.6 24.5,720.7 7,721.1 5.3,721.1 1.7,721.2    1.6,721.2 1.6,721.2 1.6,720.1 1.5,716 1.3,700.7 1.3,696.1 1.3,695.2 2.4,695.2 3.4,695.2 7.3,695.4 17.4,696.2 17.4,695.8    28.6,696.6 30.7,696.6 30.4,683.9 30.4,681.9 33.3,681.8 47,681.5 47.8,681.4 54.2,681.3 63,681.1 67.1,681 67.9,681 74.1,680.8    79.9,680.7 87.6,680.5 93,680.4 101.2,680.2 106.6,680.1 112,680 120.2,679.8 125.7,679.6 131,679.5 139.2,679.3 145.7,679.2    150.1,679.1 158.3,678.9 164.7,678.8 169.7,678.6 176.4,678.5 181.7,678.4 183.8,678.3 191.9,678.1 194.7,678.1 197,678    202.5,677.9 203.5,677.9 208.9,677.8 210.7,677.7 212.4,677.7 217.1,677.6 222.5,677.4 227.4,677.3 225.6,665 225.3,662.4    224.9,662.5 224.6,660.2 223.1,651.1 251.7,646.8 251,642.1 250.9,641.3 250.4,638.7  "
   id="polygon184" />
	<polygon
   class="st1"
   points="2.8,548.1 7.6,548.1 7.5,552.8 38.7,552.8 37.8,572.1 78.3,573.6 78.2,575.6 78,581 77.9,583.3    77.7,587.2 77.4,594.9 77.2,602 77,606.7 76.8,612.1 76.6,615.7 76.4,621 76.3,623.8 76.1,629.1 76,634 75.7,641.1 75.6,643.9    75.4,649.2 75.2,656 74.9,663.1 74.8,664.8 74.6,670.2 74.6,671.1 74.5,672.9 72.3,673 53.7,673.6 52.1,673.6 46.6,673.8    35.5,674.2 31.9,674.3 22.6,674.4 14.5,674.5 3.3,674.7 2.3,674.7 2.3,673.7 2.3,673.3 2,663.1 2,659.8 1.9,656.6 1.8,646.5    1.7,643.4 1.7,640.4 1.6,630.2 1.5,627 1.5,623.9 1.3,613.8 1.3,610.7 1.2,607.7 1.1,597.5 1,594.4 1,591.4 1.2,581 1.4,578    1.5,574.9 2.1,564.7 2.2,561.7 2.4,558.6 2.8,548.4  "
   id="polygon186" />
	<polygon
   class="st1"
   points="7.5,552.8 7.6,548.1 2.8,548.1 3,540.9 3.3,530.6 3.7,524.6 4.2,514.3 4.2,513.1 20.6,512.7 39,512.3    38.9,514.2 38.7,517.6 38.3,526.8 39.9,526.9 39.8,532.7 39.6,535 39.4,540.4 39.2,544.8 39.1,550.1 38.9,552.8 33.2,552.8    20.3,552.8  "
   id="polygon188" />
	<polygon
   class="st1"
   points="38.7,552.8 38.9,552.8 38.9,552.7 79,552.7 78.8,556.7 78.6,564.2 78.3,573.6 37.8,572.1 38.6,553.2     "
   id="polygon190" />
	<polygon
   class="st1"
   points="127.4,511.5 129.1,554.3 128,554.4 115.2,554.9 113.5,554.9 105.3,555.3 103.7,555.3 89.5,555.9    88.8,539.9 79.5,540.3 77.7,540.4 68.5,540.8 68,540.8 68,539.1 68.3,516.3 68.3,512 79.4,511.9 87.1,511.9 93.7,511.8    108.6,511.7  "
   id="polygon192" />
	<polygon
   class="st1"
   points="166.6,510 168.4,552.7 154.4,553.3 152.8,553.4 144.6,553.7 143,553.8 130.2,554.3 129.1,554.3    127.5,513.8 127.4,511.5 151.1,511.3  "
   id="polygon194" />
	<polygon
   class="st1"
   points="166.6,510 187.9,508.2 191.7,508.1 202.1,507.8 202.3,509.3 203.7,518.4 207.6,544.7 208.6,551.1    208.3,551.1 206.5,551.2 193.7,551.7 192.1,551.8 183.9,552.1 182.3,552.2 169.4,552.7 168.4,552.7  "
   id="polygon196" />
	<polygon
   class="st2"
   points="223.1,651.1 251.7,646.8 250.9,641.3 250.3,638 249.8,634.8 248.4,626.3 246.8,626.5 220,630.8    220.1,631.6  "
   id="polygon198" />
	<polygon
   class="st2"
   points="2.4,682.5 2.4,695.2 3.4,695.2 5.5,695.3 7.3,695.4 17.4,696.2 17.4,695.8 28.6,696.6 30.7,696.6    30.4,683.9 21.4,683.2 12.9,682.6 7.4,682.5  "
   id="polygon200" />
	<polygon
   class="st3"
   points="244.6,618.3 246.6,618 247.3,617.9 253.7,617 254.3,616.9 261.6,615.8 263.9,615.4 274.5,613.6    275.8,621.9 276.1,624.2 277.6,634.7 276.9,634.8 276.3,634.9 275.7,635 264.6,636.6 257.6,637.6 257,637.7 250.4,638.7    248.4,626.3 245.9,626.7  "
   id="polygon202" />
	<polygon
   class="st2"
   points="184.9,594 206.4,590.7 201.4,562.8 180.2,563  "
   id="polygon204" />
	<polygon
   class="st2"
   points="180.2,563 90,566.9 86.4,673 214.7,670.7 214.6,662.5 217.3,662.1 201.4,562.8  "
   id="polygon206" />
	<polygon
   class="st3"
   points="39,512.3 68.3,512 68,540.8 68.5,540.8 68.5,544.8 64.9,544.8 59.5,544.8 46.9,544.7 41.5,544.7    39.2,544.6 39.4,540.4 39.6,535 39.8,532.7 39.9,526.9 38.3,526.8 38.4,524.8 38.6,519.5 38.7,517.6  "
   id="polygon208" />
	<line
   class="st2"
   x1="180.2"
   y1="563"
   x2="206.4"
   y2="590.7"
   id="line210" />
	<line
   class="st2"
   x1="185.3"
   y1="593.9"
   x2="200.8"
   y2="562.8"
   id="line212" />
	<line
   class="st2"
   x1="220"
   y1="630.8"
   x2="251.7"
   y2="646.8"
   id="line214" />
	<line
   class="st2"
   x1="223.1"
   y1="651.1"
   x2="248.4"
   y2="626.3"
   id="line216" />
	<line
   class="st2"
   x1="2.4"
   y1="682.5"
   x2="30.4"
   y2="696.8"
   id="line218" />
	<line
   class="st2"
   x1="2.4"
   y1="695.2"
   x2="30.4"
   y2="683.9"
   id="line220" />
</g>
<g
   id="g274">
	<polygon
   class="st1"
   points="1.1,428.4 5.4,428.4 7.2,428.3 23.9,428.1 23.9,417.7 33.6,417.7 39.1,417.7 67.4,417.7 72.7,417.7    74.5,417.7 74.6,416.3 75.9,378.8 78.5,307.5 78.8,298.5 77,298.5 60.8,298 60.8,298.3 49.3,297.9 38.4,297.6 37.1,297.6    37.1,298.9 37,302.2 36.9,304 24.7,304.3 19.4,304.5 3.2,304.9 2.4,304.9 2.1,310.5 1.7,320.6 1.4,327 1.1,333 1,337.1 1.1,342.8    1.2,352.9 1.3,356 1.3,359.1 1.4,364.2 1.4,369.4 1.5,372.5 1.5,375.6 1.6,380.7 1.6,385.8 1.7,388.9 1.7,391.9 1.8,397.1    1.9,402.2 1.9,405.4 1.9,408.6 1.9,409.3 2.1,414.4 2.3,419.4 1.1,419.4  "
   id="polygon224" />
	<polyline
   class="st1"
   points="89.1,258.9 91.9,258.9 91.9,257.5 127.1,257.2 127.3,262.7 125.1,262.8 125.3,267.2 129.7,267    129.8,271.3 127.7,271.4 128.8,300 127.7,300.1 114.1,300.6 113.3,300.7 105.1,301 104.3,301 90.6,301.6 87.7,301.7 88,291.7    88.9,262.9 89.1,258.9  "
   id="polyline226" />
	<polygon
   class="st1"
   points="168.1,298.4 167,298.5 153.4,299 152.6,299.1 144.4,299.4 143.5,299.4 129.9,300 128.8,300    127.7,271.4 129.8,271.3 129.7,267 125.3,267.2 125.1,262.8 127.3,262.7 127.1,257.2 144.1,257 151.2,256.9 166.4,255.7  "
   id="polygon228" />
	<polygon
   class="st1"
   points="202.5,253.4 207.6,288.5 207.9,290.3 208.8,296.8 200,297.1 192.7,297.4 191.8,297.5 183.7,297.8    182.8,297.8 169.2,298.4 168.1,298.4 166.4,255.7 170.3,255.4 189.4,253.8 195.7,253.6 202,253.5  "
   id="polygon230" />
	<polygon
   class="st1"
   points="202.5,253.4 203.8,253.3 256.7,252 258.1,251.9 270.4,332.8 274.4,359 274.8,361.7 274,361.8    263.8,362.7 262,362.9 258.8,363.4 253.7,364.2 228.6,368 226.8,368.3 218.9,369.4 218.1,363.8 215.9,348.8 215.6,347 214.9,342    214.8,341.3 214.1,335.9 211.9,321.5 211.7,319.5 211.4,317.8 211.1,315.6 210,308 209.5,305 208.4,297.4 208.3,296.8 208.8,296.8     "
   id="polygon232" />
	<polyline
   class="st1"
   points="88.3,428 88.3,428.8 88.3,433.4 88.4,438.7 88.5,453.2 88.6,458.7 88.6,463.7 88.6,464.6 88.7,465.6    85,465.7 79.7,465.8 76.6,465.9 71.3,466 68.9,466.1 67.3,466.1 65,466.2 59.7,466.3 57.6,466.3 52.2,466.5 49.9,466.5 48.1,466.5    46.5,466.6 41.1,466.7 38.2,466.8 32.8,466.9 31,466.9 27.7,467 24.4,467.1 6.9,467.5 3.1,467.6 1.1,467.6 1.1,442.2 1.1,441.6    2.2,441.6 3.3,441.6 5.3,441.6 7.1,441.7 11.6,441.7 15.7,441.8 21.1,441.9 23.6,441.9 30.6,442 31.6,442 31.5,442.4 31.5,443    36.7,443 36.4,429.5 40.2,429.4 47.5,429.2 49.2,429.2 57.8,429 66.5,428.8 68.2,428.7 73.3,428.6 73.3,428.3 77.1,428.2    82.5,428.1 84.6,428.1 88.3,428 84.6,428.1  "
   id="polyline234" />
	<polygon
   class="st1"
   points="48.2,466.6 48.2,470.2 69.2,469.8 69.2,466.1  "
   id="polygon236" />
	<polygon
   class="st1"
   points="88.3,427.3 88.2,425.9 88.8,425.9 92,425.8 102.4,425.5 107.5,425.4 114.3,425.3 124.5,425 127.5,425    128.5,463 128.5,464 122.7,464.2 122.4,464.2 114.5,464.3 99.5,464.7 91.6,464.9 89.3,464.9 88.7,464.9 88.6,463 88.4,438    88.3,432.7 88.3,428.1  "
   id="polygon238" />
	<polygon
   class="st1"
   points="170.8,463 128.5,464 127.5,425 133.7,424.8 136.1,424.8 150.8,424.5 153.8,424.4 159.1,424.3    169.3,424.1 170.4,424.1  "
   id="polygon240" />
	<polygon
   class="st1"
   points="195.4,423.5 195.4,424.3 195.4,427.9 195.5,431.5 195.5,436 195.7,451.6 195.7,453 200.1,452.9    200.2,457.8 197.3,457.9 197.4,462.5 193.7,462.5 185.8,462.7 180.6,462.8 172.7,463 170.8,463 170.4,424.1 171.5,424 186.2,423.7    189.3,423.7 194.4,423.6  "
   id="polygon242" />
	<polyline
   class="st1"
   points="289,460.4 285.7,460.5 270.3,460.8 267.5,460.9 252.2,461.2 249.5,461.3 234.4,461.6 231.7,461.7    214.5,462.1 214,462.1 214,460.2 213.6,444.2 213.5,442.7 213.5,440.5 213.1,423.4 214.6,423.3 228.6,423.2 228,418.1 226.6,408.2    226.2,405.9 224.6,396.6 225.2,396.5 237.5,394.7 238,394.6 250.9,392.7 250.3,388.9 250.1,387.1 249.6,383.8 250.2,383.7    265.8,381.5 266.3,381.4 276.5,379.9 277.4,379.8 277.6,381.5 278.4,386.9 279.8,397.5 280.3,400.6 284,426.1 284.2,427.6    284.5,429.9 288.5,457.1 288.6,457.9 289,460.4 285.7,460.5  "
   id="polyline244" />
	
		<rect
   x="60.6"
   y="263.3"
   transform="matrix(3.163489e-02 -0.9995 0.9995 3.163489e-02 -204.1088 343.0135)"
   class="st3"
   width="28.8"
   height="27"
   id="rect246" />
	<polygon
   class="st3"
   points="249.6,383.8 277.4,379.8 274.8,361.7 263.8,362.7 246.5,365.3  "
   id="polygon248" />
	<polygon
   class="st3"
   points="195.4,423.5 213.1,423.4 213.6,444.2 214,462.1 197.4,462.5 197.3,457.9 200.2,457.8 200.1,452.9    195.7,453  "
   id="polygon250" />
	<polygon
   class="st2"
   points="2.2,428.4 2.2,440.9 23.6,441.2 23.9,428.1  "
   id="polygon252" />
	<polygon
   class="st2"
   points="184.7,339.7 205.7,336.5 201.2,308.5 179.9,308.7  "
   id="polygon254" />
	<polygon
   class="st2"
   points="179.9,308.7 89.8,312.6 86.1,418.7 214.5,416.4 214.4,408.2 217.1,407.8 201.2,308.5  "
   id="polygon256" />
	<polygon
   class="st2"
   points="223,392.5 250.2,387.8 250.1,387.1 249.6,383.8 247.7,372.3 246.8,372.4 220.6,376.4 220.7,377.2  "
   id="polygon258" />
	<polygon
   class="st1"
   points="2.4,304.9 2.4,304.4 2.9,294.3 3.2,286.6 3.7,276.5 4,269.8 4.5,259.8 4.5,258.9 21.5,258.9    38.5,258.8 40,258.9 40.8,258.9 40.8,259.1 49.6,259.4 56,259.7 59.1,259.8 60,259.8 60,260.8 60.9,260.8 61.9,260.8 61.9,262    61.9,262.6 61,290.3 61,291.7 60.8,297.1 60.8,298 60.8,298.3 55.1,298.1 49.3,297.9 43.9,297.8 38.4,297.6 37.6,297.6 37.1,297.6    37.1,298.9 37,302.2 36.9,304 36.4,304 30.8,304.2 24.7,304.3 19.4,304.5  "
   id="polygon260" />
	<line
   class="st2"
   x1="179.9"
   y1="308.7"
   x2="205.7"
   y2="336.5"
   id="line262" />
	<line
   class="st2"
   x1="201.2"
   y1="308.5"
   x2="184.7"
   y2="339.7"
   id="line264" />
	<line
   class="st2"
   x1="2.2"
   y1="428.4"
   x2="23.6"
   y2="441.2"
   id="line266" />
	<line
   class="st2"
   x1="2.2"
   y1="440.9"
   x2="23.9"
   y2="428.1"
   id="line268" />
	<line
   class="st2"
   x1="220.6"
   y1="376.4"
   x2="250.2"
   y2="387.8"
   id="line270" />
	<line
   class="st2"
   x1="223"
   y1="392.5"
   x2="247.7"
   y2="372.3"
   id="line272" />
</g>
<g
   id="g346">
	<polygon
   class="st1"
   points="5.4,7.5 41.9,6.7 72.9,8.6 72.9,10.9 88.7,11 90.2,50.3 61.1,49.3 61.8,28.9 37.5,28.1 37.7,21.9    4.8,20.4  "
   id="polygon276" />
	<polygon
   class="st1"
   points="4.7,21.8 10.4,22.1 10.5,20.6 37.7,21.9 37.5,28.1 52.9,28.6 52.1,48.8 9.3,47.3 9.3,46.9 3.6,46.8     "
   id="polygon278" />
	<polygon
   class="st1"
   points="3.5,48.5 9.2,48.5 9.3,47.3 43.7,48.5 42.6,77.4 33.9,77.1 33.6,84.5 7.4,83.6 7.4,81.3 2.1,81.3  "
   id="polygon280" />
	<polygon
   class="st1"
   points="2,82.9 7.4,82.9 7.4,83.6 33.6,84.5 33.6,88.5 42.4,88.8 41.2,117.7 8,116.6 8,115.9 2.3,115.9    1.9,85.9  "
   id="polygon282" />
	<polygon
   class="st1"
   points="2.3,117.5 8,117.5 8,116.6 41.2,117.7 40.1,148.2 8.3,147.1 8.4,148.2 2.7,148.3  "
   id="polygon284" />
	<polygon
   class="st1"
   points="2.7,150 8.5,150 8.4,148.2 8.3,147.1 40.1,148.2 39.5,167.6 23.5,168.1 22.8,177.5 3.2,176.4    3.2,167.8 2.8,157.8  "
   id="polygon286" />
	<polygon
   class="st1"
   points="88.7,11 88.5,6.5 104.8,6.3 105.2,15.6 107.9,15.4 109.3,49.3 90.2,50.2  "
   id="polygon288" />
	<polygon
   class="st1"
   points="110.3,6.3 110.6,15.3 107.9,15.4 109.3,49.3 129,48.5 127.3,6.2  "
   id="polygon290" />
	<polygon
   class="st1"
   points="2.7,189.9 29.9,191.7 37.1,191.3 36.8,176.6 67.3,175.9 68.2,213.1 68.3,214.4 27.7,215.3 10.7,215.7    1.2,215.9 1,189.9  "
   id="polygon292" />
	<polygon
   class="st1"
   points="61.7,167.1 62,176 67.3,175.9 68.2,213.1 68.3,214.4 88.5,213.9 88.5,175.4 86.4,175.4 86.8,166.7     "
   id="polygon294" />
	<polygon
   class="st1"
   points="61.7,167.1 48.3,167.5 49.3,137.6 65.6,138.2 65.4,146.9 81.8,147.6 81.8,145.9 87.4,146.1    86.8,166.7  "
   id="polygon296" />
	<polygon
   class="st1"
   points="49.9,118.1 82.7,119.1 82.9,116.1 88.4,116.3 87.4,146.1 81.8,145.9 81.8,147.6 65.4,146.9    65.6,138.2 49.3,137.6  "
   id="polygon298" />
	<polygon
   class="st1"
   points="50.8,93.8 83.6,94.9 83.4,100.3 89,100.5 88.4,116.3 82.9,116.1 82.7,119.1 49.9,118.1  "
   id="polygon300" />
	<polygon
   class="st1"
   points="51.6,72.2 60.2,72.6 60.2,76.6 84.2,77.5 84.1,80.4 89.8,80.6 89,100.5 83.4,100.3 83.6,94.9    50.8,93.8  "
   id="polygon302" />
	<polygon
   class="st1"
   points="52,57.6 90.3,59 89.8,80.6 84.1,80.4 84,77.5 60.2,76.6 60.2,72.6 51.6,72.2  "
   id="polygon304" />
	<polygon
   class="st1"
   points="144.2,6.1 144.5,13.9 147.3,13.9 148.7,47.7 129,48.5 127.3,6.2  "
   id="polygon306" />
	<polygon
   class="st1"
   points="149.7,5.9 150,13.9 147.3,13.9 148.7,47.7 168.3,46.9 166.7,4.7 151.3,5.9  "
   id="polygon308" />
	<polygon
   class="st1"
   points="183.5,3.3 183.9,12.4 186.6,12.3 188,46.1 168.3,46.9 166.7,4.7  "
   id="polygon310" />
	<polygon
   class="st1"
   points="188.9,2.8 189.3,12.2 186.6,12.3 188,46.1 208.9,45.3 207.2,33.9 206.3,11.4 207.9,11.4 207.6,2.4     "
   id="polygon312" />
	<polygon
   class="st1"
   points="258.2,1 262.5,29.7 225.5,35.4 225,32 215.8,33.4 216.3,36.8 207.8,38.2 207.2,33.9 206.3,11.4    207.9,11.4 207.6,2.4  "
   id="polygon314" />
	<polygon
   class="st1"
   points="209.8,51.3 218.4,50 216.3,36.5 215.8,33.4 225,32 225.5,35.4 262.5,29.7 266.9,58.8 212,67.4  "
   id="polygon316" />
	<polygon
   class="st1"
   points="271.4,88.3 266.9,58.8 212,67.4 216.3,96.6  "
   id="polygon318" />
	<polygon
   class="st1"
   points="275.7,117.4 271.4,88.3 216.3,96.6 220.8,125.2  "
   id="polygon320" />
	<polygon
   class="st1"
   points="279.9,147.8 275.7,117.4 248.2,121.3 251.5,141.8 238,143.7 237.2,138.6 223.4,140.8 224.6,149.2    225.7,156  "
   id="polygon322" />
	<polygon
   class="st1"
   points="232.7,210.2 225.7,156 279.9,147.8 288.9,208.7 289,209.3 269.1,209.8 252.7,210.2  "
   id="polygon324" />
	<polyline
   class="st2"
   points="90.8,61.8 180.3,58.2 201,57.3 205.4,84.5 216.3,156.2 213.9,156.5 214.1,165.3 226.4,163.5  "
   id="polyline326" />
	<polyline
   class="st2"
   points="180.3,58.2 185,88.5 205.6,85.4  "
   id="polyline328" />
	<line
   class="st2"
   x1="180.3"
   y1="58.2"
   x2="205.6"
   y2="85.4"
   id="line330" />
	<line
   class="st2"
   x1="185"
   y1="88.5"
   x2="201"
   y2="57.3"
   id="line332" />
	<polyline
   class="st2"
   points="220.8,125.2 248.2,121.3 250.6,136.3 223,141 220.8,125.2  "
   id="polyline334" />
	<line
   class="st2"
   x1="223.4"
   y1="140.8"
   x2="248.2"
   y2="121.3"
   id="line336" />
	<line
   class="st2"
   x1="220.8"
   y1="125.2"
   x2="250.6"
   y2="136.3"
   id="line338" />
	<polyline
   class="st2"
   points="2.7,189.9 3.2,176.4 22.8,177.5 22.1,191.2 2.7,189.9  "
   id="polyline340" />
	<line
   class="st2"
   x1="3.2"
   y1="176.4"
   x2="22.1"
   y2="191.2"
   id="line342" />
	<line
   class="st2"
   x1="2.6"
   y1="189.7"
   x2="22.5"
   y2="177.7"
   id="line344" />
</g>
</svg>