<!--?xml version="1.0" encoding="UTF-8" standalone="no"?-->
<!-- Generator: Adobe Illustrator 22.1.0, SVG Export Plug-In . SVG Version: 6.00 Build 0)  -->

<svg xmlns:dc="http://purl.org/dc/elements/1.1/" xmlns:cc="http://creativecommons.org/ns#" xmlns:rdf="http://www.w3.org/1999/02/22-rdf-syntax-ns#" xmlns:svg="http://www.w3.org/2000/svg" xmlns="http://www.w3.org/2000/svg" xmlns:sodipodi="http://sodipodi.sourceforge.net/DTD/sodipodi-0.dtd" xmlns:inkscape="http://www.inkscape.org/namespaces/inkscape" version="1.1" id="Layer_1" x="0px" y="0px" viewBox="0 0 550.5 995.4" style="enable-background:new 0 0 550.5 995.4;" xml:space="preserve" sodipodi:docname="Quijano Plantas.svg" inkscape:version="0.92.3 (2405546, 2018-03-11)" width="100%" height="100%"><metadata id="metadata185"><rdf:rdf><cc:work rdf:about=""><dc:format>image/svg+xml</dc:format><dc:type rdf:resource="http://purl.org/dc/dcmitype/StillImage"></dc:type></cc:work></rdf:rdf></metadata><defs id="defs183"></defs><sodipodi:namedview pagecolor="#ffffff" bordercolor="#666666" borderopacity="1" objecttolerance="10" gridtolerance="10" guidetolerance="10" inkscape:pageopacity="0" inkscape:pageshadow="2" inkscape:window-width="4800" inkscape:window-height="2442" id="namedview181" showgrid="false" inkscape:zoom="1.8967249" inkscape:cx="395.63372" inkscape:cy="502.04756" inkscape:window-x="9584" inkscape:window-y="-16" inkscape:window-maximized="1" inkscape:current-layer="Layer_1"></sodipodi:namedview>
<style type="text/css" id="style2">
	.st0{fill:#FFFF00;}
	.st1{fill:none;stroke:#000000;stroke-width:3.5;stroke-miterlimit:10;}
	.st2{fill:none;stroke:#000000;stroke-width:2;stroke-miterlimit:10;}
	.st3{fill:none;stroke:#000000;stroke-width:0.75;stroke-miterlimit:10;}
</style>
<polygon class="st0 area" points="350.5,277.6 265.1,326.2 372.5,392.7 379.5,388.4 380.8,389.5 389.1,394.6 413.8,379.3 404.4,373.1   415.7,366.2 424.3,372.8 449.3,357.2 439.8,351.4 450.9,344.6 " id="A4" inkscape:label="APT4" title=""></polygon>
<polygon class="st0 area" points="136.6,447.4 147.6,442.8 159.1,452.8 148.8,457.4 169.1,475 179.5,470.6 187.8,477.9 190.9,478.3   188.5,486 223,490.1 225.6,482.3 227.9,482.6 238.2,476.2 247.9,482 272.6,466.6 263.3,460.7 273.5,454.4 282.9,460.2 308.1,444.6   298.7,438.9 309.3,432.3 318.7,438.4 343.3,423.1 334.1,417 340.6,413 232.1,345.6 116.8,415.9 127.2,425 116.3,429.8 " id="A3" inkscape:label="APT3" title=""></polygon>
<polygon class="st0 area" points="354.3,624.5 368.9,633.6 461.9,575.8 447.8,566.3 347.4,499.3 262,547.9 369.3,614.4 " id="A2" inkscape:label="APT2" title=""></polygon>
<polygon class="st0 area" points="353.3,625.1 337.5,634.7 229,567.3 113.7,637.6 98.7,646.9 172.9,711.1 232.4,718.4 367.9,634.2 " id="A1" inkscape:label="APT1" title=""></polygon>
<polygon class="st0 area" points="296.8,786 315.1,798.3 328.9,789.4 308,776.5 334.8,759.8 356,772.9 377.7,759.1 387.7,765.3   404.9,754.6 355.4,721.4 270.1,770 277.2,774.3 245.1,794.3 237.1,789.4 121.7,859.7 192.7,921.7 232.9,926.4 345.1,857.1   263.2,806.2 " id="L1" inkscape:label="LOC1" title=""></polygon>
<polygon class="st0 area" points="406.7,755.8 387.7,767.7 377.7,761.5 356,775.3 334.8,762.2 311.8,776.5 332.7,789.4 316.9,799.5   377.7,836.8 455.9,788.4 " id="L2" inkscape:label="LOC2" title=""></polygon>
<polygon class="st0 area" points="349.4,173.2 363.6,181.9 456.9,123.7 355.3,56.4 269.9,105 365.2,164 " id="A6" inkscape:label="APT6" title=""></polygon>
<polygon class="st0 area active" points="327,161.7 311.7,171.1 236.9,124.4 134.8,186.6 120.5,195.5 192,257.6 233.8,262.5 361.7,183.1 " id="A5" inkscape:label="APT5" title=""></polygon>
<g id="Layer_1_1_" class="area excluded" title="">
</g>
<g id="Layer_2_1_" class="area excluded" title="">
	<polygon class="st1 area excluded" points="296.4,121.5 269.9,105 355.3,56.4 443.1,115 348.3,173.8 227.6,248.7 203.1,245.8 134.8,186.6    175.7,161.7 236.9,124.4 264.1,141.5  " id="polygon21" title=""></polygon>
	<line class="st2 area excluded" x1="280.3" y1="131.4" x2="348.3" y2="173.8" id="line23" title=""></line>
	<line class="st2 area excluded" x1="296.4" y1="121.5" x2="365.2" y2="164" id="line25" title=""></line>
	<line class="st2 area excluded" x1="264.1" y1="141.5" x2="313.2" y2="172" id="line27" title=""></line>
	<line class="st3 area excluded" x1="300.8" y1="143" x2="315.2" y2="134.1" id="line29" title=""></line>
	<line class="st3 area excluded" x1="302.3" y1="164" x2="316.7" y2="155" id="line31" title=""></line>
	<line class="st3 area excluded" x1="284.7" y1="153" x2="299.1" y2="144.1" id="line33" title=""></line>
	<line class="st3 area excluded" x1="295.3" y1="159.6" x2="309.7" y2="150.7" id="line35" title=""></line>
	<line class="st3 area excluded" x1="309.4" y1="168.3" x2="323.7" y2="159.4" id="line37" title=""></line>
	<line class="st3 area excluded" x1="298.8" y1="161.8" x2="313.2" y2="152.8" id="line39" title=""></line>
	<line class="st3 area excluded" x1="322" y1="156.1" x2="336.4" y2="147.2" id="line41" title=""></line>
	<line class="st3 area excluded" x1="314.9" y1="151.7" x2="329.3" y2="142.8" id="line43" title=""></line>
	<line class="st3 area excluded" x1="304.4" y1="145.2" x2="318.8" y2="136.3" id="line45" title=""></line>
	<line class="st3 area excluded" x1="297.3" y1="140.8" x2="311.7" y2="131.9" id="line47" title=""></line>
	<line class="st3 area excluded" x1="288.2" y1="155.2" x2="302.6" y2="146.3" id="line49" title=""></line>
	<line class="st3 area excluded" x1="281.2" y1="150.8" x2="295.6" y2="141.9" id="line51" title=""></line>
	<line class="st3 area excluded" x1="325.5" y1="158.3" x2="339.9" y2="149.4" id="line53" title=""></line>
	<line class="st3 area excluded" x1="311.4" y1="149.6" x2="325.8" y2="140.6" id="line55" title=""></line>
	<line class="st3 area excluded" x1="291.7" y1="157.4" x2="306.1" y2="148.5" id="line57" title=""></line>
	<line class="st3 area excluded" x1="329" y1="160.5" x2="343.4" y2="151.6" id="line59" title=""></line>
	<line class="st3 area excluded" x1="307.9" y1="147.4" x2="322.3" y2="138.4" id="line61" title=""></line>
	<line class="st3 area excluded" x1="318.5" y1="153.9" x2="332.8" y2="145" id="line63" title=""></line>
	<line class="st3 area excluded" x1="312.9" y1="170.5" x2="327.3" y2="161.6" id="line65" title=""></line>
	<line class="st3 area excluded" x1="305.8" y1="166.1" x2="320.2" y2="157.2" id="line67" title=""></line>
	<polyline class="st2 area excluded" points="134.8,186.6 120.5,195.5 192,257.6 233.8,262.5 456.9,123.7 444.4,115.1  " id="polyline69" title=""></polyline>
	<polygon class="st1 area excluded" points="291.6,342.7 265.1,326.2 350.5,277.6 450.9,344.6 358,402.3 227.9,482.6 187.8,477.9 116.8,415.9    170.9,382.9 232.1,345.6 259.3,362.7  " id="polygon71" title=""></polygon>
	<line class="st2 area excluded" x1="291.6" y1="342.7" x2="372.5" y2="392.7" id="line73" title=""></line>
	<line class="st2 area excluded" x1="259.3" y1="362.7" x2="340.6" y2="413" id="line75" title=""></line>
	<polyline class="st2 area excluded" points="127.2,425 116.3,429.8 136.6,447.4 147.6,442.8  " id="polyline77" title=""></polyline>
	<polyline class="st2 area excluded" points="159.6,452.6 148.8,457.4 169.1,475 180,470.4  " id="polyline79" title=""></polyline>
	<polyline class="st2 area excluded" points="190.8,478.2 188.5,486 223,490.1 225.6,482.3  " id="polyline81" title=""></polyline>
	<polyline class="st2 area excluded" points="238.8,476.3 247.9,482 272.6,466.6 263.2,460.8  " id="polyline83" title=""></polyline>
	<polyline class="st2 area excluded" points="273.5,454.4 282.9,460.2 308.1,444.6 298.8,438.8  " id="polyline85" title=""></polyline>
	<polyline class="st2 area excluded" points="309.1,432.5 318.7,438.4 343.3,423.1 333.9,417.2  " id="polyline87" title=""></polyline>
	<polyline class="st2 area excluded" points="344.4,410.7 353.9,416.5 378.5,401.2 369.2,395.4  " id="polyline89" title=""></polyline>
	<polyline class="st2 area excluded" points="379.2,388.5 389.1,394.6 413.8,379.3 404.4,373.5  " id="polyline91" title=""></polyline>
	<polyline class="st2 area excluded" points="415,366.9 424.3,372.8 449.3,357.2 439.9,351.4  " id="polyline93" title=""></polyline>
	<line class="st3 area excluded" x1="308.1" y1="391.7" x2="338.6" y2="372.8" id="line95" title=""></line>
	<line class="st3 area excluded" x1="294" y1="383" x2="324.5" y2="364" id="line97" title=""></line>
	<line class="st3 area excluded" x1="304.6" y1="389.5" x2="335.1" y2="370.6" id="line99" title=""></line>
	<line class="st3 area excluded" x1="286.9" y1="378.6" x2="317.5" y2="359.6" id="line101" title=""></line>
	<line class="st3 area excluded" x1="276.4" y1="372" x2="306.9" y2="353.1" id="line103" title=""></line>
	<line class="st3 area excluded" x1="301" y1="387.3" x2="331.6" y2="368.4" id="line105" title=""></line>
	<line class="st3 area excluded" x1="282.3" y1="377.1" x2="314" y2="357.5" id="line107" title=""></line>
	<line class="st3 area excluded" x1="279.9" y1="374.2" x2="310.4" y2="355.3" id="line109" title=""></line>
	<line class="st3 area excluded" x1="290.5" y1="380.8" x2="321" y2="361.8" id="line111" title=""></line>
	<line class="st3 area excluded" x1="323.4" y1="382.2" x2="291.6" y2="362.6" id="line113" title=""></line>
	<line class="st3 area excluded" x1="297.5" y1="385.2" x2="328.1" y2="366.2" id="line115" title=""></line>
	<line class="st2 area excluded" x1="348.3" y1="173.8" x2="362.7" y2="182.5" id="line117" title=""></line>
	<polygon class="st1 area excluded" points="288.5,564.4 262,547.9 347.4,499.3 447.8,566.3 354.9,624 224.8,704.3 184.6,699.6 113.7,637.6    167.8,604.6 229,567.3 256.2,584.4  " id="polygon119" title=""></polygon>
	<line class="st2 area excluded" x1="288.5" y1="564.4" x2="369.3" y2="614.4" id="line121" title=""></line>
	<line class="st2 area excluded" x1="256.2" y1="584.4" x2="337.5" y2="634.7" id="line123" title=""></line>
	<line class="st3 area excluded" x1="305" y1="613.4" x2="335.5" y2="594.5" id="line125" title=""></line>
	<line class="st3 area excluded" x1="290.9" y1="604.7" x2="321.4" y2="585.7" id="line127" title=""></line>
	<line class="st3 area excluded" x1="301.4" y1="611.2" x2="332" y2="592.3" id="line129" title=""></line>
	<line class="st3 area excluded" x1="283.8" y1="600.3" x2="314.3" y2="581.3" id="line131" title=""></line>
	<line class="st3 area excluded" x1="273.2" y1="593.7" x2="303.8" y2="574.8" id="line133" title=""></line>
	<line class="st3 area excluded" x1="297.9" y1="609" x2="328.4" y2="590.1" id="line135" title=""></line>
	<line class="st3 area excluded" x1="279.1" y1="598.8" x2="310.8" y2="579.2" id="line137" title=""></line>
	<line class="st3 area excluded" x1="276.8" y1="595.9" x2="307.3" y2="577" id="line139" title=""></line>
	<line class="st3 area excluded" x1="287.3" y1="602.5" x2="317.9" y2="583.5" id="line141" title=""></line>
	<line class="st3 area excluded" x1="320.2" y1="603.9" x2="288.5" y2="584.3" id="line143" title=""></line>
	<line class="st3 area excluded" x1="294.4" y1="606.9" x2="324.9" y2="587.9" id="line145" title=""></line>
	<polyline class="st2 area excluded" points="113.7,637.6 98.7,646.9 172.9,711.1 232.4,718.4 461.9,575.8 447.8,566.3  " id="polyline147" title=""></polyline>
	<line class="st2 area excluded" x1="353.8" y1="624.8" x2="368.4" y2="633.9" id="line149" title=""></line>
	<polygon class="st1 area excluded" points="277.2,774.3 270.1,770 355.4,721.4 455.9,788.4 363,846.1 232.9,926.4 192.7,921.7 121.7,859.7    175.9,826.7 237.1,789.4 245.1,794.3  " id="polygon151" title=""></polygon>
	<polyline class="st2 area excluded" points="316,798.9 330.8,789.4 309.9,776.5 334.8,761 356,774.1 377.7,760.3 387.7,766.5 405.8,755.2  " id="polyline153" title=""></polyline>
	<polyline class="st2 area excluded" points="377.7,836.8 295.8,786 263.2,806.2 345.1,857.1  " id="polyline155" title=""></polyline>
	<polyline class="st2 area excluded" points="280.8,794.9 328.7,824.6 343.1,815.7  " id="polyline157" title=""></polyline>
	<line class="st3 area excluded" x1="298.4" y1="827.1" x2="315.5" y2="816.5" id="line159" title=""></line>
	<line class="st3 area excluded" x1="309" y1="833.6" x2="326.1" y2="823" id="line161" title=""></line>
	<line class="st3 area excluded" x1="291.4" y1="822.7" x2="308.5" y2="812.1" id="line163" title=""></line>
	<line class="st3 area excluded" x1="280.8" y1="816.1" x2="297.9" y2="805.5" id="line165" title=""></line>
	<line class="st3 area excluded" x1="305.5" y1="831.4" x2="322.6" y2="820.8" id="line167" title=""></line>
	<line class="st3 area excluded" x1="287.9" y1="820.5" x2="305" y2="809.9" id="line169" title=""></line>
	<line class="st3 area excluded" x1="284.3" y1="818.3" x2="301.4" y2="807.7" id="line171" title=""></line>
	<line class="st3 area excluded" x1="294.9" y1="824.9" x2="312" y2="814.3" id="line173" title=""></line>
	<line class="st3 area excluded" x1="302" y1="829.3" x2="319.1" y2="818.6" id="line175" title=""></line>
	<line class="st3 area excluded" x1="312.4" y1="835.7" x2="329.5" y2="825.1" id="line177" title=""></line>
</g>
</svg>